<?xml version="1.0" encoding="UTF-8" standalone="no"?>
<!-- Created with Sodipodi ("http://www.sodipodi.com/") -->

<svg
   width="72pt"
   height="72pt"
   viewBox="0 0 256 256"
   style="overflow:visible;enable-background:new 0 0 256 256"
   xml:space="preserve"
   id="svg4445"
   version="1.1"
   xmlns="http://www.w3.org/2000/svg"
   xmlns:svg="http://www.w3.org/2000/svg"
   xmlns:a="http://ns.adobe.com/AdobeSVGViewerExtensions/3.0/"><defs
     id="defs4533" /><g
     id="Layer_1"
     style="stroke:#000000;"><g
       id="g4447"><path
         style="opacity:0.2;stroke:none;"
         d="M44,15.5c-9.374,0-17,7.626-17,17v200c0,9.374,7.626,17,17,17h176c9.375,0,17-7.626,17-17v-200     c0-9.374-7.625-17-17-17H44z"
         id="path4448" /><path
         style="opacity:0.2;stroke:none;"
         d="M42,13.5c-9.374,0-17,7.626-17,17v200c0,9.374,7.626,17,17,17h176c9.375,0,17-7.626,17-17v-200     c0-9.374-7.625-17-17-17H42z"
         id="path4449" /><path
         style="opacity:0.2;stroke:none;"
         d="M40,12.5c-9.374,0-17,7.626-17,17v200c0,9.374,7.626,17,17,17h176c9.375,0,17-7.626,17-17v-200     c0-9.374-7.625-17-17-17H40z"
         id="path4450" /><linearGradient
         id="XMLID_1_"
         gradientUnits="userSpaceOnUse"
         x1="128.9995"
         y1="11"
         x2="128.9995"
         y2="245.0005"><stop
           offset="0"
           style="stop-color:#494949"
           id="stop4452" /><stop
           offset="1"
           style="stop-color:#000000"
           id="stop4453" /><a:midPointStop
           offset="0"
           style="stop-color:#494949"
           id="midPointStop4454" /><a:midPointStop
           offset="0.5"
           style="stop-color:#494949"
           id="midPointStop4455" /><a:midPointStop
           offset="1"
           style="stop-color:#000000"
           id="midPointStop4456" /></linearGradient><path
         style="fill:url(#XMLID_1_);stroke:none;"
         d="M41,11c-9.374,0-17,7.626-17,17v200c0,9.374,7.626,17,17,17h176c9.375,0,17-7.626,17-17V28     c0-9.374-7.625-17-17-17H41z"
         id="path4457" /><path
         style="fill:#FFFFFF;stroke:none;"
         d="M28,228c0,6.627,5.373,12,12,12h176c6.627,0,12-5.373,12-12V28c0-6.627-5.373-12-12-12H40     c-6.627,0-12,5.373-12,12V228z"
         id="path4458" /><linearGradient
         id="XMLID_2_"
         gradientUnits="userSpaceOnUse"
         x1="29.0532"
         y1="29.0532"
         x2="226.9471"
         y2="226.9471"><stop
           offset="0"
           style="stop-color:#FFFFFF"
           id="stop4460" /><stop
           offset="1"
           style="stop-color:#DADADA"
           id="stop4461" /><a:midPointStop
           offset="0"
           style="stop-color:#FFFFFF"
           id="midPointStop4462" /><a:midPointStop
           offset="0.5"
           style="stop-color:#FFFFFF"
           id="midPointStop4463" /><a:midPointStop
           offset="1"
           style="stop-color:#DADADA"
           id="midPointStop4464" /></linearGradient><path
         style="fill:url(#XMLID_2_);stroke:none;"
         d="M40,21c-3.86,0-7,3.14-7,7v200c0,3.859,3.14,7,7,7h176c3.859,0,7-3.141,7-7V28c0-3.86-3.141-7-7-7H40z"
         id="path4465" /><path
         style="fill:none;stroke:none;"
         d="M256,256H0V0h256V256z"
         id="path4466" /></g><g
       id="g4467"><path
         style="opacity:0.2;stroke:none;"
         d="M121.281,84.41c-19.393,2.387-36.691,12.183-48.715,27.581c-12.023,15.397-17.33,34.559-14.943,53.951     c2.387,19.389,12.182,36.689,27.582,48.713c31.789,24.818,77.844,19.148,102.663-12.639     c12.004-15.373,17.299-34.531,14.908-53.946c-2.389-19.413-12.174-36.713-27.549-48.718     C159.828,87.329,140.67,82.022,121.281,84.41 M127.435,160.564c-1.102-0.859-1.732-2.162-1.732-3.568     c0-1.014,0.328-1.973,0.953-2.771c0.742-0.951,1.813-1.557,3.014-1.705c1.197-0.146,2.379,0.18,3.326,0.922     c0.951,0.742,1.555,1.811,1.701,3.01c0.148,1.201-0.18,2.385-0.92,3.334C132.244,161.746,129.4,162.098,127.435,160.564z"
         id="path4468" /><path
         style="opacity:0.2;stroke:none;"
         d="M119.281,83.41c-19.393,2.387-36.691,12.183-48.715,27.581c-12.023,15.397-17.33,34.559-14.943,53.951     c2.387,19.389,12.182,36.689,27.582,48.713c31.789,24.818,77.844,19.148,102.663-12.639     c12.004-15.373,17.299-34.531,14.908-53.946c-2.389-19.413-12.174-36.713-27.549-48.718     C157.828,86.329,138.67,81.022,119.281,83.41 M125.435,159.564c-1.102-0.859-1.732-2.162-1.732-3.568     c0-1.014,0.328-1.973,0.953-2.771c0.742-0.951,1.813-1.557,3.014-1.705c1.197-0.146,2.379,0.18,3.327,0.922     c0.951,0.742,1.555,1.811,1.701,3.01c0.148,1.201-0.18,2.385-0.92,3.334C130.244,160.746,127.4,161.098,125.435,159.564z"
         id="path4469" /><path
         style="fill:#3A3AA9;stroke:none;"
         d="M118.281,81.41c-19.393,2.387-36.691,12.183-48.715,27.581c-12.023,15.397-17.33,34.559-14.943,53.951     c2.387,19.389,12.182,36.689,27.582,48.713c31.789,24.818,77.844,19.148,102.663-12.639     c12.004-15.373,17.299-34.531,14.908-53.946c-2.389-19.413-12.174-36.713-27.549-48.718     C156.828,84.329,137.67,79.022,118.281,81.41 M124.435,157.564c-1.102-0.859-1.732-2.162-1.732-3.568     c0-1.014,0.328-1.973,0.953-2.771c0.742-0.951,1.813-1.557,3.014-1.706c1.197-0.146,2.379,0.181,3.327,0.923     c0.951,0.742,1.555,1.811,1.701,3.01c0.148,1.201-0.18,2.385-0.92,3.334C129.244,158.746,126.4,159.098,124.435,157.564z"
         id="path4470" /><linearGradient
         id="XMLID_3_"
         gradientUnits="userSpaceOnUse"
         x1="59.3979"
         y1="154.0039"
         x2="195.0342"
         y2="154.0039"><stop
           offset="0"
           style="stop-color:#E6EDFF"
           id="stop4472" /><stop
           offset="1"
           style="stop-color:#B3CAFF"
           id="stop4473" /><a:midPointStop
           offset="0"
           style="stop-color:#E6EDFF"
           id="midPointStop4474" /><a:midPointStop
           offset="0.5"
           style="stop-color:#E6EDFF"
           id="midPointStop4475" /><a:midPointStop
           offset="1"
           style="stop-color:#B3CAFF"
           id="midPointStop4476" /></linearGradient><path
         style="fill:url(#XMLID_3_);stroke:none;"
         d="M73.636,112.169c-23.104,29.591-17.844,72.311,11.746,95.415c29.594,23.104,72.311,17.846,95.415-11.746     s17.842-72.312-11.748-95.416C139.457,77.319,96.74,82.577,73.636,112.169 M134.85,159.963     c-3.287,4.211-9.383,4.959-13.594,1.674c-4.207-3.287-4.959-9.383-1.67-13.593c3.283-4.209,9.383-4.961,13.59-1.674     C137.383,149.654,138.137,155.754,134.85,159.963z"
         id="path4477" /><path
         style="fill:#FFFFFF;stroke:none;"
         d="M135.689,158.885c3.221-4.123,2.414-10.155-1.793-13.442c-4.209-3.285-10.249-2.6-13.469,1.523     c-0.141,0.178-0.266,0.365-0.391,0.555c3.369-3.734,9.114-4.291,13.139-1.15c4.023,3.141,4.877,8.853,2.07,13.026     C135.396,159.229,135.549,159.064,135.689,158.885 M87.07,205.424c-29.41-22.959-35.154-64.817-13-93.793     c-0.145,0.18-0.291,0.356-0.434,0.539c-23.104,29.591-17.844,72.311,11.746,95.415c29.594,23.104,72.311,17.846,95.415-11.746     c0.141-0.184,0.279-0.369,0.42-0.551C158.477,223.809,116.48,228.387,87.07,205.424z"
         id="path4478" /><path
         style="opacity:0.3;fill:#9B95FF;stroke:none;"
         d="M169.049,100.422c-9.893-7.725-21.254-12.273-32.855-13.809l-3.477,24.794l-4.62,32.96     c1.79,0.16,3.557,0.813,5.079,2.002c1.256,0.984,2.199,2.219,2.826,3.581l30.357-12.278l23.709-9.586     C185.73,117.539,178.68,107.941,169.049,100.422z"
         id="path4479" /><path
         style="opacity:0.7;fill:#FFFFFF;stroke:none;"
         d="M183.281,115.538c-3.842-5.599-8.592-10.715-14.232-15.115c-5.92-4.623-12.367-8.107-19.076-10.491     c-5.586,15.287-10.66,29.187-10.66,29.187s-4.311,11.795-9.354,25.606c1.135,0.334,2.227,0.875,3.217,1.646     c0.701,0.551,1.301,1.184,1.809,1.869C149.504,138.411,169.916,124.59,183.281,115.538z"
         id="path4480" /><path
         style="opacity:0.3;fill:#9B95FF;stroke:none;"
         d="M125.148,163.451c-1.377-0.299-2.711-0.893-3.893-1.814c-1.439-1.129-2.467-2.59-3.074-4.188     L86.89,170.104l-22.771,9.209c4.314,10.787,11.447,20.607,21.264,28.271c9.555,7.459,20.477,11.959,31.666,13.641l3.484-24.852     L125.148,163.451z"
         id="path4481" /><path
         style="opacity:0.7;fill:#FFFFFF;stroke:none;"
         d="M121.255,161.637c-0.713-0.561-1.324-1.207-1.834-1.906c-12.35,8.363-22.984,15.563-22.984,15.563     s-12,8.125-25.311,17.141c3.85,5.613,8.607,10.74,14.256,15.15c5.777,4.51,12.053,7.934,18.586,10.313     c5.646-15.459,14.092-38.584,20.008-54.775C123.017,162.781,122.099,162.293,121.255,161.637z"
         id="path4482" /><path
         style="fill:#9B95FF;stroke:none;"
         d="M107.025,138.237c-8.691,11.133-6.705,27.265,4.428,35.958s27.264,6.707,35.954-4.426     c8.693-11.133,6.707-27.265-4.426-35.958C131.848,125.12,115.718,127.106,107.025,138.237 M134.85,159.963     c-3.287,4.211-9.383,4.959-13.594,1.674c-4.207-3.287-4.959-9.383-1.67-13.593c3.283-4.209,9.383-4.961,13.59-1.674     C137.383,149.654,138.137,155.754,134.85,159.963z"
         id="path4483" /><path
         style="fill:#E6E6E6;stroke:none;"
         d="M114.019,143.7c-5.68,7.276-4.385,17.819,2.893,23.501s17.821,4.383,23.5-2.893     c5.682-7.277,4.385-17.821-2.895-23.505C130.242,135.122,119.701,136.421,114.019,143.7 M134.85,159.963     c-3.287,4.211-9.383,4.959-13.594,1.674c-4.207-3.287-4.959-9.383-1.67-13.593c3.283-4.209,9.383-4.961,13.59-1.674     C137.383,149.654,138.137,155.754,134.85,159.963z"
         id="path4484" /><path
         style="opacity:0.5;fill:none;stroke:none;adobe-blending-mode:overlay;"
         d="M202.691,227.977H52.857V78.139h149.834V227.977z"
         id="path4485" /><linearGradient
         id="XMLID_4_"
         gradientUnits="userSpaceOnUse"
         x1="127.7725"
         y1="126.5088"
         x2="127.7725"
         y2="98.9801"><stop
           offset="0"
           style="stop-color:#E1E1FF"
           id="stop4487" /><stop
           offset="1"
           style="stop-color:#FFFFFF"
           id="stop4488" /><a:midPointStop
           offset="0"
           style="stop-color:#E1E1FF"
           id="midPointStop4489" /><a:midPointStop
           offset="0.5"
           style="stop-color:#E1E1FF"
           id="midPointStop4490" /><a:midPointStop
           offset="1"
           style="stop-color:#FFFFFF"
           id="midPointStop4491" /></linearGradient><path
         style="opacity:0.7;fill:url(#XMLID_4_);stroke:none;"
         d="M127.773,87.648c-27.727,0-50.285,13.483-50.285,30.058c0,11.159,10.314,21.118,26.176,26.292     c0.854-2.014,1.953-3.957,3.361-5.76c8.693-11.131,24.823-13.118,35.956-4.426c3.635,2.84,6.275,6.477,7.908,10.469     c16.271-5.113,27.168-15.326,27.168-26.575C178.057,101.131,155.5,87.648,127.773,87.648z"
         id="path4492" /><path
         style="opacity:0.2;stroke:none;"
         d="M79.167,72.216c0.576,1.703,2.102,2.84,3.813,2.84h14.246v35.85c0,5.277,4.042,9.557,9.031,9.557h46.854     c4.99,0,9.031-4.279,9.031-9.557v-35.85h11.414c1.707,0,3.232-1.137,3.811-2.84c0.576-1.701,0.08-3.605-1.24-4.752L130.84,28.052     c-1.494-1.303-3.649-1.301-5.145,0L80.408,67.464C79.085,68.613,78.591,70.515,79.167,72.216z"
         id="path4493" /><path
         style="opacity:0.2;stroke:none;"
         d="M81.181,74.197c0.576,1.703,2.102,2.84,3.812,2.84h14.246v35.85c0,5.277,4.043,9.557,9.032,9.557h46.854     c4.988,0,9.031-4.279,9.031-9.557v-35.85h11.412c1.707,0,3.234-1.137,3.813-2.84c0.576-1.701,0.078-3.605-1.24-4.752     l-45.287-39.412c-1.494-1.301-3.65-1.301-5.145,0L82.421,69.445C81.101,70.593,80.605,72.496,81.181,74.197z"
         id="path4494" /><path
         style="opacity:0.2;stroke:none;"
         d="M79.181,72.197c0.576,1.703,2.102,2.84,3.812,2.84h14.246v35.85c0,5.277,4.043,9.557,9.032,9.557h46.854     c4.988,0,9.031-4.279,9.031-9.557v-35.85h11.412c1.707,0,3.234-1.137,3.813-2.84c0.576-1.701,0.078-3.605-1.24-4.752     l-45.287-39.412c-1.494-1.301-3.651-1.301-5.145,0L80.421,67.445C79.101,68.593,78.605,70.496,79.181,72.197z"
         id="path4495" /><linearGradient
         id="XMLID_5_"
         gradientUnits="userSpaceOnUse"
         x1="146.2471"
         y1="1290.8359"
         x2="146.2471"
         y2="1101.7578"
         gradientTransform="matrix(-1 0 0 -1 273.5273 1303.6328)"><stop
           offset="0"
           style="stop-color:#003333"
           id="stop4497" /><stop
           offset="1"
           style="stop-color:#006A00"
           id="stop4498" /><a:midPointStop
           offset="0"
           style="stop-color:#003333"
           id="midPointStop4499" /><a:midPointStop
           offset="0.5"
           style="stop-color:#003333"
           id="midPointStop4500" /><a:midPointStop
           offset="1"
           style="stop-color:#006A00"
           id="midPointStop4501" /></linearGradient><path
         style="fill:url(#XMLID_5_);stroke:none;"
         d="M78.181,71.197c0.576,1.703,2.102,2.84,3.812,2.84h14.246v35.85c0,5.277,4.043,9.557,9.032,9.557h46.854     c4.988,0,9.031-4.279,9.031-9.557v-35.85h11.412c1.707,0,3.234-1.137,3.813-2.84c0.576-1.701,0.078-3.605-1.24-4.752     l-45.287-39.412c-1.495-1.301-3.651-1.301-5.145,0L79.421,66.445C78.101,67.593,77.605,69.496,78.181,71.197z"
         id="path4502" /><linearGradient
         id="XMLID_6_"
         gradientUnits="userSpaceOnUse"
         x1="127.2803"
         y1="52.6807"
         x2="127.2803"
         y2="145.2769"><stop
           offset="0"
           style="stop-color:#FFFFFF"
           id="stop4504" /><stop
           offset="0.005"
           style="stop-color:#F9FDF9"
           id="stop4505" /><stop
           offset="0.0651"
           style="stop-color:#B3ECB3"
           id="stop4506" /><stop
           offset="0.1193"
           style="stop-color:#7CDE7C"
           id="stop4507" /><stop
           offset="0.1656"
           style="stop-color:#54D454"
           id="stop4508" /><stop
           offset="0.2022"
           style="stop-color:#3CCE3C"
           id="stop4509" /><stop
           offset="0.2247"
           style="stop-color:#33CC33"
           id="stop4510" /><stop
           offset="0.6798"
           style="stop-color:#009933"
           id="stop4511" /><a:midPointStop
           offset="0"
           style="stop-color:#FFFFFF"
           id="midPointStop4512" /><a:midPointStop
           offset="0.4"
           style="stop-color:#FFFFFF"
           id="midPointStop4513" /><a:midPointStop
           offset="0.2247"
           style="stop-color:#33CC33"
           id="midPointStop4514" /><a:midPointStop
           offset="0.5"
           style="stop-color:#33CC33"
           id="midPointStop4515" /><a:midPointStop
           offset="0.6798"
           style="stop-color:#009933"
           id="midPointStop4516" /></linearGradient><path
         style="fill:url(#XMLID_6_);stroke:none;"
         d="M100.287,69.751c0,13.512,0,40.135,0,40.135c0,2.906,2.236,5.271,4.984,5.271h46.854     c2.746,0,4.982-2.365,4.982-5.271c0,0,0-28.318,0-40.135h15.461l-45.287-39.412L81.993,69.751H100.287z"
         id="path4517" /><linearGradient
         id="XMLID_7_"
         gradientUnits="userSpaceOnUse"
         x1="164.75"
         y1="67.5425"
         x2="166.7695"
         y2="67.5425"><stop
           offset="0"
           style="stop-color:#FFFFFF"
           id="stop4519" /><stop
           offset="1"
           style="stop-color:#33CC33"
           id="stop4520" /><a:midPointStop
           offset="0"
           style="stop-color:#FFFFFF"
           id="midPointStop4521" /><a:midPointStop
           offset="0.5"
           style="stop-color:#FFFFFF"
           id="midPointStop4522" /><a:midPointStop
           offset="1"
           style="stop-color:#33CC33"
           id="midPointStop4523" /></linearGradient><path
         style="fill:url(#XMLID_7_);stroke:none;"
         d="M164.75,67.582c0.707,0,1.393,0,2.02,0c-0.027-0.023-0.061-0.053-0.09-0.078     C166.035,67.515,165.393,67.546,164.75,67.582z"
         id="path4524" /><linearGradient
         id="XMLID_8_"
         gradientUnits="userSpaceOnUse"
         x1="127.2358"
         y1="18.6826"
         x2="127.2358"
         y2="102.6008"><stop
           offset="0"
           style="stop-color:#FFFFFF"
           id="stop4526" /><stop
           offset="1"
           style="stop-color:#33CC33"
           id="stop4527" /><a:midPointStop
           offset="0"
           style="stop-color:#FFFFFF"
           id="midPointStop4528" /><a:midPointStop
           offset="0.5"
           style="stop-color:#FFFFFF"
           id="midPointStop4529" /><a:midPointStop
           offset="1"
           style="stop-color:#33CC33"
           id="midPointStop4530" /></linearGradient><path
         style="fill:url(#XMLID_8_);stroke:none;"
         d="M164.75,67.582c0.643-0.035,1.285-0.066,1.93-0.078c-7.043-6.129-37-32.201-39.398-34.287     c-2.406,2.094-32.597,28.367-39.489,34.365c5.41,0,14.664,0,14.664,0v20.109c1.989,0.008,4.015-0.195,6.041-0.646     c16.324-4.26,30.793-14.086,46.44-17.947v-1.516C154.938,67.582,160.354,67.582,164.75,67.582z"
         id="path4531" /></g></g></svg>
