<?xml version="1.0" encoding="UTF-8" standalone="no"?>
<!-- Created with Sodipodi ("http://www.sodipodi.com/") -->

<svg
   id="svg604"
   width="48pt"
   height="48pt"
   version="1.1"
   xmlns:xlink="http://www.w3.org/1999/xlink"
   xmlns="http://www.w3.org/2000/svg"
   xmlns:svg="http://www.w3.org/2000/svg">
  <defs
     id="defs606">
    <linearGradient
       id="linearGradient612">
      <stop
         style="stop-color:#7fa8e3;stop-opacity:0.741176;"
         offset="0.000000"
         id="stop613" />
      <stop
         style="stop-color:#ffffff;stop-opacity:0;"
         offset="1.000000"
         id="stop614" />
    </linearGradient>
    <linearGradient
       xlink:href="#linearGradient612"
       id="linearGradient615"
       x1="50.6438866"
       y1="5.36792946"
       x2="35.7520943"
       y2="68.0443573"
       gradientUnits="userSpaceOnUse"
       spreadMethod="pad" />
  </defs>
  <path
     style="fill:#3d4e67;fill-rule:evenodd;stroke:none;stroke-opacity:1;stroke-width:1pt;stroke-linejoin:miter;stroke-linecap:butt;fill-opacity:1;"
     d="M 14.01167 59.29217 C 11.64449 59.25751 7.675979 57.81164 7.32947 53.93165 C 6.107518 50.01148 1.859649 12.9592 3.909426 10.37842 C 4.968572 8.346601 7.274937 6.855066 11.37837 6.337994 C 14.73596 5.823757 45.27698 1.804939 47.52901 2.428704 C 49.78114 3.052515 51.55516 3.579997 51.71717 6.708405 C 51.5506 8.409768 57.22323 43.1126 58.09349 45.15899 C 58.50873 47.55597 57.8271 50.9056 54.35442 52.00899 C 50.88177 53.11237 16.75302 58.82385 14.01167 59.29217 z "
     id="path609" />
  <path
     style="fill:#ffffff;fill-rule:evenodd;stroke:none;stroke-opacity:1;stroke-width:1pt;stroke-linejoin:miter;stroke-linecap:butt;fill-opacity:1;"
     d="M 16.74643 55.18246 C 14.45144 55.48551 11.26359 56.11903 10.88281 52.9806 C 9.297207 45.55114 5.661707 16.10648 8.252165 11.3214 C 8.830752 10.1962 11.97207 8.668908 19.10783 8.031309 C 27.21687 7.215538 43.85539 5.974975 45.6063 6.055559 C 47.35712 6.136169 47.89276 5.937878 48.27359 9.076383 C 48.11893 12.41313 53.40087 38.51534 53.7129 43.13681 C 53.95569 46.41753 54.37353 47.81143 52.23117 48.60456 "
     id="path608" />
  <path
     style="fill:url(#linearGradient615);fill-rule:evenodd;stroke:none;stroke-opacity:1;stroke-width:1pt;stroke-linejoin:miter;stroke-linecap:butt;fill-opacity:1;"
     d="M 8.826332 15.7645 C 8.826332 15.7645 9.032739 11.31195 14.97403 10.42526 C 20.91532 9.538612 44.44543 6.516464 45.00608 8.059365 C 45.56669 9.602256 46.26081 19.62914 46.43392 20.44028 C 46.60704 21.2514 26.68843 28.18786 21.21886 34.80764 C 15.74931 41.42743 11.91872 46.78405 11.91872 46.78405 C 11.91872 46.78405 8.786686 23.43737 8.826332 15.7645 z "
     id="path636" />
  <path
     style="font-size:12;font-weight:bold;fill:#3d4e67;stroke-width:1;font-family:Bitstream Charter;"
     d="M 25.75469 48.97635 L 41.32918 45.91285 L 40.82714 43.36051 L 37.28597 43.78653 L 36.28862 43.11704 L 30.8276 15.35382 L 31.51758 14.46064 L 34.95629 13.51373 L 34.45424 10.9614 L 18.87974 14.02489 L 19.38179 16.57723 L 22.87086 16.16146 L 23.84772 16.72676 L 29.30874 44.49 L 28.63925 45.48734 L 25.25264 46.42401 L 25.75469 48.97635 z "
     id="path724" />
</svg>
