<?xml version="1.0" encoding="UTF-8" standalone="no"?>
<!-- Created with Sodipodi ("http://www.sodipodi.com/") -->

<svg
   id="svg652"
   width="48pt"
   height="48pt"
   version="1.1"
   xmlns:xlink="http://www.w3.org/1999/xlink"
   xmlns="http://www.w3.org/2000/svg"
   xmlns:svg="http://www.w3.org/2000/svg">
  <defs
     id="defs654">
    <linearGradient
       id="linearGradient666">
      <stop
         style="stop-color:#a6d7ff;stop-opacity:1;"
         offset="0.000000"
         id="stop667" />
      <stop
         style="stop-color:#ffffff;stop-opacity:0.396078;"
         offset="1.000000"
         id="stop668" />
    </linearGradient>
    <linearGradient
       id="linearGradient660">
      <stop
         style="stop-color:#3882d2;stop-opacity:1;"
         offset="0.000000"
         id="stop661" />
      <stop
         style="stop-color:#ffffff;stop-opacity:1;"
         offset="1.000000"
         id="stop662" />
    </linearGradient>
    <linearGradient
       xlink:href="#linearGradient660"
       id="linearGradient663"
       x1="24.8720913"
       y1="97.8506012"
       x2="54.9295425"
       y2="95.5566864"
       gradientUnits="userSpaceOnUse"
       gradientTransform="scale(1.203807,0.830698)"
       spreadMethod="pad" />
    <linearGradient
       xlink:href="#linearGradient666"
       id="linearGradient665"
       x1="77.3604736"
       y1="65.4081421"
       x2="55.6024742"
       y2="83.4317398"
       gradientUnits="userSpaceOnUse"
       gradientTransform="scale(1.203807,0.830698)"
       spreadMethod="pad" />
  </defs>
  <path
     style="fill:#00043b;fill-rule:evenodd;stroke:none;stroke-opacity:1;stroke-width:1pt;stroke-linejoin:miter;stroke-linecap:butt;fill-opacity:1;"
     d="M 45.56177 57.28597 C 42.76857 60.78774 28.86087 59.37443 25.67234 58.56892 L 4.638337 32.32421 L 18.64263 4.743868 L 21.22325 0.716247 L 24.94889 5.863935 L 40.48984 4.799834 C 41.09402 5.504737 53.28387 28.90974 54.4922 30.6215 C 53.78731 32.53466 45.86383 56.27906 45.56177 57.28597 z "
     id="path690" />
  <path
     style="font-size:12;fill:#a55800;fill-rule:evenodd;stroke-width:1pt;fill-opacity:1;"
     d="M 8.069435 31.6719 L 10.40992 33.8762 L 22.70366 8.562647 L 25.45511 10.98786 L 21.59817 3.512942 L 8.069435 31.6719 z "
     id="path680" />
  <path
     style="font-size:12;fill:url(#linearGradient663);fill-rule:evenodd;stroke-width:1pt;"
     d="M 27.38888 34.95093 L 12.80206 36.46724 L 10.02883 33.34728 L 22.35698 9.169948 L 38.09295 8.843764 L 27.38888 34.95093 z "
     id="path681" />
  <path
     style="font-size:12;fill:url(#linearGradient665);fill-rule:evenodd;stroke-width:1pt;"
     d="M 27.38888 34.36545 L 12.80206 36.46724 L 10.02883 33.34728 L 22.16182 8.779621 L 38.28811 8.453444 L 27.38888 34.36545 z "
     id="path682" />
  <path
     style="font-size:12;fill:#ff8900;fill-rule:evenodd;stroke-width:1pt;fill-opacity:1;"
     d="M 44.00796 56.6607 L 26.67506 32.91465 L 38.11478 7.088654 L 51.98111 30.31469 L 44.00796 56.6607 z "
     id="path683" />
  <path
     style="font-size:12;fill:#a45800;fill-rule:evenodd;stroke-width:1pt;fill-opacity:1;"
     d="M 44.20312 56.09705 C 40.33213 58.23477 29.32611 58.42221 26.14839 55.88005 L 9.335497 33.00066 C 12.39763 34.44504 24.04689 35.06652 27.62904 32.52433 L 44.20312 56.09705 z "
     id="path684" />
  <path
     style="font-size:12;fill:none;fill-rule:evenodd;stroke:#000008;stroke-width:0.681979;"
     d="M 16.18252 33.58512 L 24.64056 14.25238 "
     id="path685" />
  <path
     style="font-size:12;fill:none;fill-rule:evenodd;stroke:#000000;stroke-width:0.681979;"
     d="M 13.56454 33.78643 L 21.61981 14.85655 "
     id="path686" />
</svg>
