<?xml version="1.0" encoding="UTF-8" standalone="no"?>
<!-- Created with Sodipodi ("http://www.sodipodi.com/") -->

<svg
   width="48pt"
   height="48pt"
   viewBox="0 0.2084961 33 32"
   overflow="visible"
   enable-background="new 0 0.2084961 33 32"
   xml:space="preserve"
   id="svg602"
   version="1.1"
   xmlns="http://www.w3.org/2000/svg"
   xmlns:svg="http://www.w3.org/2000/svg"
   xmlns:a="http://ns.adobe.com/AdobeSVGViewerExtensions/3.0/"><defs
     id="defs717" /><g
     id="Layer_1_2_"
     transform="matrix(0.965726,0,0,0.965726,0.678311,1.339191)"><g
       id="g604"><path
         opacity="0.2"
         d="M24.1669922,6.496582C19.078125,0.0717773,10.3203125-1.4741211,4.6113281,3.0454102     C-1.0996094,7.565918-1.6015625,16.4399414,3.4902344,22.8657227c5.0917969,6.4277344,16.9257813,7.1552734,14.1054688-6.4316406     C16.7509766,12.3696289,29.2587891,12.9243164,24.1669922,6.496582z M16.0546875,15.1889648     c-0.6445313,1.34375-2.0634766,1.9003906-3.1708984,1.2470703c-1.1083984-0.6542969-1.4833984-2.2724609-0.8408203-3.6142578     c0.6445313-1.3417969,2.0644531-1.9013672,3.1738281-1.2451172     C16.3212891,12.2260742,16.6992188,13.8461914,16.0546875,15.1889648z"
         id="path605" /><g
         id="g606"><path
           fill="#A14C00"
           d="M25.8427734,5.8300781C20.7539063-0.5952148,11.996582-2.1411133,6.2871094,2.378418      c-5.7109375,4.5205078-6.2124023,13.394043-1.121582,19.8203125c5.0917969,6.4277344,16.9262695,7.1552734,14.105957-6.4311523      C18.4267578,11.7026367,30.9345703,12.2578125,25.8427734,5.8300781z M17.7304688,14.5219727      c-0.6445313,1.34375-2.0634766,1.9003906-3.1708984,1.246582c-1.1083984-0.6533203-1.4833984-2.2719727-0.8408203-3.6137695      c0.6450195-1.3417969,2.0644531-1.9013672,3.1738281-1.2456055C17.9970703,11.559082,18.375,13.1796875,17.7304688,14.5219727z"
           id="path607" /><linearGradient
           id="XMLID_1_"
           gradientUnits="userSpaceOnUse"
           x1="-21.5683594"
           y1="26.5112305"
           x2="27.0607128"
           y2="7.3331742"
           gradientTransform="matrix(0.784 -0.6208 0.6989 0.8826 -6.5981913 9.4704437)"><stop
             offset="0"
             style="stop-color:#FFFF99"
             id="stop609" /><stop
             offset="1"
             style="stop-color:#FEDBA4"
             id="stop610" /><a:midPointStop
             offset="0"
             style="stop-color:#FFFF99"
             id="midPointStop611" /><a:midPointStop
             offset="0.5"
             style="stop-color:#FFFF99"
             id="midPointStop612" /><a:midPointStop
             offset="1"
             style="stop-color:#FEDBA4"
             id="midPointStop613" /></linearGradient><path
           fill="url(#XMLID_1_)"
           d="M6.7324219,2.8466797C1.2753906,7.1679688,0.7963867,15.6508789,5.6601563,21.793457      c4.8666992,6.1455078,16.1738281,6.8408203,13.4785156-6.1474609      c-0.8066406-3.8857422,11.1474609-3.3554688,6.2822266-9.4995117C20.5566406,0.003418,12.1884766-1.4741211,6.7324219,2.8466797      z M17.6689453,14.4555664c-0.6162109,1.2841797-1.9726563,1.8164063-3.0307617,1.1914063      c-1.0585938-0.625-1.4174805-2.171875-0.8027344-3.4550781c0.6157227-1.2822266,1.9726563-1.8173828,3.0317383-1.1904297      C17.9228516,11.6225586,18.2832031,13.1723633,17.6689453,14.4555664z"
           id="path614" /></g></g><g
       id="g615"><path
         fill="#FF6666"
         d="M10.4584961,8.2587891c1.0703125,0.6674805,1.2714844,2.2763672,0.4482422,3.5947266     c-0.8208008,1.3173828-2.3554688,1.8457031-3.4243164,1.1772461c-1.0703125-0.6669922-1.2714844-2.2758789-0.4487305-3.5942383     C7.8549805,8.1191406,9.3891602,7.5908203,10.4584961,8.2587891z"
         id="path616" /><path
         fill="#33CC33"
         d="M16.3476563,3.7060547c0.3339844,0.9433594-0.581543,2.1289063-2.0454102,2.6479492     c-1.4638672,0.5195313-2.921875,0.1757813-3.2568359-0.7680664c-0.3344727-0.9433594,0.5810547-2.1289063,2.0449219-2.6479492     C14.5541992,2.418457,16.0117188,2.762207,16.3476563,3.7060547z"
         id="path617" /><path
         fill="#6666FF"
         d="M9.715332,16.3276367c1.1186523-0.6796875,2.6787109-0.1538086,3.4833984,1.1757813     c0.8061523,1.3261719,0.5522461,2.9550781-0.5673828,3.6328125c-1.1196289,0.6796875-2.6796875,0.1533203-3.484375-1.1757813     C8.3413086,18.6333008,8.5952148,17.0053711,9.715332,16.3276367z"
         id="path618" /></g><path
       opacity="0.2"
       d="M19.3007813,31.5463867c0.6367188,0.4960938,1.2880859,0.7050781,1.9072266,0.5048828    c0.5888672-1.6621094,2.7265625-10.0869141,0.7314453-14.5820313c-0.6953125-1.5678711-2.7128906-3.7919922-3.1328125-3.4960938    c-0.0498047-0.0927734-0.1074219-0.1904297-0.1728516-0.3051758c-0.1728516-0.3007813-0.4023438-0.5288086-0.7373047-0.4663086    c-0.0576172-0.0214844-0.1162109-0.0395508-0.1738281-0.0581055c-0.3232422-0.1806641-0.6806641-0.2597656-1.046875-0.237793    c-2.9863281-0.3374023-5.0048828,2.0825195-10.7236328-0.7329102c1.0556641,0.8022461,1.9663086,1.3066406,2.7792969,1.6357422    c-0.987793-0.2319336-2.0922852-0.5825195-3.3251953-1.144043c0.2006836,0.1953125,0.3857422,0.3671875,0.5649414,0.5288086    c-0.1557617-0.0693359-0.3081055-0.1337891-0.4692383-0.2070313c2.2573242,2.3642578,4.7387695,2.8081055,7.7036133,3.9624023    c-1.7416992,0.0566406-3.8203125-0.1806641-6.8183594-2.6416016c3.9462891,4.109375,5.5654297,3.8242188,8.9716797,3.8378906    c-0.1455078,0.5380859-0.2299805,1.1269531-0.265625,1.7421875c-0.6704102,1.0009766-1.1640625,2.1230469-1.1005859,2.6679688    c0.1142578,0.9785156,1.53125,2.1152344,1.7431641,3.0585938c0.2119141,0.9462891,0.3696289,3.1142578,0.8491211,3.7822266    c0.3994141,0.5595703,0.9453125,0.4404297,1.4248047,0.7363281c0.2138672,0.3046875,0.4345703,0.5810547,0.6591797,0.8251953    C18.8544922,31.2446289,19.0664063,31.4389648,19.3007813,31.5463867z M13.3823242,14.4853516    c0.3574219,0.0356445,0.7124023,0.1035156,1.0766602,0.2167969c-0.0136719,0.0356445-0.0200195,0.0727539-0.0317383,0.1098633    C14.1108398,14.6625977,13.765625,14.5595703,13.3823242,14.4853516z M15.3745117,18.1430664    c0.0151367,0.0009766,0.0288086,0.0009766,0.043457,0.0009766c0.0410156,0.0390625,0.0825195,0.0800781,0.125,0.1181641    C15.4389648,18.2827148,15.3823242,18.2436523,15.3745117,18.1430664z"
       id="path619" /><linearGradient
       id="XMLID_2_"
       gradientUnits="userSpaceOnUse"
       x1="-9.1782227"
       y1="22.2915039"
       x2="17.9883137"
       y2="9.4580021"><stop
         offset="0"
         style="stop-color:#C5E8F1"
         id="stop621" /><stop
         offset="0.1062913"
         style="stop-color:#BEE4ED"
         id="stop622" /><stop
         offset="0.2566567"
         style="stop-color:#ACD9E3"
         id="stop623" /><stop
         offset="0.4332393"
         style="stop-color:#8EC6D2"
         id="stop624" /><stop
         offset="0.6297923"
         style="stop-color:#63ACBA"
         id="stop625" /><stop
         offset="0.8401533"
         style="stop-color:#2E8B9C"
         id="stop626" /><stop
         offset="1"
         style="stop-color:#006F82"
         id="stop627" /><a:midPointStop
         offset="0"
         style="stop-color:#C5E8F1"
         id="midPointStop628" /><a:midPointStop
         offset="0.632768"
         style="stop-color:#C5E8F1"
         id="midPointStop629" /><a:midPointStop
         offset="1"
         style="stop-color:#006F82"
         id="midPointStop630" /></linearGradient><path
       fill="url(#XMLID_2_)"
       d="M4.265625,12.5991211C11.5,13.2006836,14.6293945,10.7070313,17.4111328,11.4970703    c-0.2363281,0.5175781,0.1796875,0.8662109,0.1113281,1.5224609C9.2822266,13.3618164,8.9931641,14.6679688,4.265625,12.5991211z"
       id="path631" /><linearGradient
       id="XMLID_3_"
       gradientUnits="userSpaceOnUse"
       x1="-9.6118164"
       y1="21.3745117"
       x2="17.5553665"
       y2="8.5407047"><stop
         offset="0"
         style="stop-color:#C5E8F1"
         id="stop633" /><stop
         offset="0.1062913"
         style="stop-color:#BEE4ED"
         id="stop634" /><stop
         offset="0.2566567"
         style="stop-color:#ACD9E3"
         id="stop635" /><stop
         offset="0.4332393"
         style="stop-color:#8EC6D2"
         id="stop636" /><stop
         offset="0.6297923"
         style="stop-color:#63ACBA"
         id="stop637" /><stop
         offset="0.8401533"
         style="stop-color:#2E8B9C"
         id="stop638" /><stop
         offset="1"
         style="stop-color:#006F82"
         id="stop639" /><a:midPointStop
         offset="0"
         style="stop-color:#C5E8F1"
         id="midPointStop640" /><a:midPointStop
         offset="0.632768"
         style="stop-color:#C5E8F1"
         id="midPointStop641" /><a:midPointStop
         offset="1"
         style="stop-color:#006F82"
         id="midPointStop642" /></linearGradient><path
       fill="url(#XMLID_3_)"
       d="M4.7392578,11.7851563c9.8085938,1.097168,10.2802734-4.0214844,15.9296875-3.7973633    c-0.2353516,0.5166016-2.8691406,2.6245117-2.9375,3.28125C13.7148438,10.7524414,12.2495117,14.0498047,4.7392578,11.7851563z"
       id="path643" /><linearGradient
       id="XMLID_4_"
       gradientUnits="userSpaceOnUse"
       x1="-8.5820313"
       y1="23.5532227"
       x2="18.5841923"
       y2="10.7198687"><stop
         offset="0"
         style="stop-color:#C5E8F1"
         id="stop645" /><stop
         offset="0.1062913"
         style="stop-color:#BEE4ED"
         id="stop646" /><stop
         offset="0.2566567"
         style="stop-color:#ACD9E3"
         id="stop647" /><stop
         offset="0.4332393"
         style="stop-color:#8EC6D2"
         id="stop648" /><stop
         offset="0.6297923"
         style="stop-color:#63ACBA"
         id="stop649" /><stop
         offset="0.8401533"
         style="stop-color:#2E8B9C"
         id="stop650" /><stop
         offset="1"
         style="stop-color:#006F82"
         id="stop651" /><a:midPointStop
         offset="0"
         style="stop-color:#C5E8F1"
         id="midPointStop652" /><a:midPointStop
         offset="0.632768"
         style="stop-color:#C5E8F1"
         id="midPointStop653" /><a:midPointStop
         offset="1"
         style="stop-color:#006F82"
         id="midPointStop654" /></linearGradient><path
       fill="url(#XMLID_4_)"
       d="M4.5322266,12.9428711c7.2333984,0.6010742,10.9746094-0.5449219,13.6083984-0.3564453    c-0.2363281,0.5166016,1.4433594,1.4550781,1.3740234,2.1108398C13.4501953,13.8862305,9.440918,15.2827148,4.5322266,12.9428711z    "
       id="path655" /><linearGradient
       id="XMLID_5_"
       gradientUnits="userSpaceOnUse"
       x1="-8.1455078"
       y1="24.4780273"
       x2="19.0213356"
       y2="11.6443806"><stop
         offset="0"
         style="stop-color:#C5E8F1"
         id="stop657" /><stop
         offset="0.1062913"
         style="stop-color:#BEE4ED"
         id="stop658" /><stop
         offset="0.2566567"
         style="stop-color:#ACD9E3"
         id="stop659" /><stop
         offset="0.4332393"
         style="stop-color:#8EC6D2"
         id="stop660" /><stop
         offset="0.6297923"
         style="stop-color:#63ACBA"
         id="stop661" /><stop
         offset="0.8401533"
         style="stop-color:#2E8B9C"
         id="stop662" /><stop
         offset="1"
         style="stop-color:#006F82"
         id="stop663" /><a:midPointStop
         offset="0"
         style="stop-color:#C5E8F1"
         id="midPointStop664" /><a:midPointStop
         offset="0.632768"
         style="stop-color:#C5E8F1"
         id="midPointStop665" /><a:midPointStop
         offset="1"
         style="stop-color:#006F82"
         id="midPointStop666" /></linearGradient><path
       fill="url(#XMLID_5_)"
       d="M6.2451172,14.144043c7.625,2.5996094,10.0380859-0.2583008,13.2207031-0.8881836    c-0.125,0.559082,0.3408203,0.8500977,0.4003906,1.5253906C15.1557617,16.2768555,13.3657227,17.512207,6.2451172,14.144043z"
       id="path667" /><radialGradient
       id="XMLID_6_"
       cx="22.6289063"
       cy="-2.3979492"
       r="16.7025833"
       fx="22.6289063"
       fy="-2.3979492"
       gradientTransform="matrix(0.9069 0.4213 -0.4213 0.9069 8.9686298 -4.815773)"
       gradientUnits="userSpaceOnUse"><stop
         offset="0"
         style="stop-color:#C5E8F1"
         id="stop669" /><stop
         offset="0.1062913"
         style="stop-color:#BEE4ED"
         id="stop670" /><stop
         offset="0.2566567"
         style="stop-color:#ACD9E3"
         id="stop671" /><stop
         offset="0.4332393"
         style="stop-color:#8EC6D2"
         id="stop672" /><stop
         offset="0.6297923"
         style="stop-color:#63ACBA"
         id="stop673" /><stop
         offset="0.8401533"
         style="stop-color:#2E8B9C"
         id="stop674" /><stop
         offset="1"
         style="stop-color:#006F82"
         id="stop675" /><a:midPointStop
         offset="0"
         style="stop-color:#C5E8F1"
         id="midPointStop676" /><a:midPointStop
         offset="0.632768"
         style="stop-color:#C5E8F1"
         id="midPointStop677" /><a:midPointStop
         offset="1"
         style="stop-color:#006F82"
         id="midPointStop678" /></radialGradient><path
       fill="url(#XMLID_6_)"
       d="M22.3779297,9.7641602c0.0898438-0.8115234-0.2294922-1.0029297-0.8720703-1.5239258    c-0.3740234-0.3037109-0.7929688-0.4960938-1.2138672-0.2192383c-1.3417969-0.3066406-2.7402344,0.4316406-3.3427734,1.8764648    c-0.7050781,1.6958008-0.0449219,3.7167969,1.4755859,4.5136719c1.5195313,0.7963867,2.8642578,1.7739258,4.0292969-1.6264648    C22.8066406,11.7548828,22.8076172,10.6738281,22.3779297,9.7641602z"
       id="path679" /><path
       fill="#005067"
       d="M21.8212891,8.6459961c0.0126953-0.8603516,3.9042969,1.0668945,5.5820313,2.7338867    C31.9482422,15.8979492,33.0029297,26.8334961,33,29.0600586c-3.6513672,2.6191406-13.4765625-7.6660156-13.6787109-14.519043    C19.2138672,16.4477539,21.7587891,12.7709961,21.8212891,8.6459961z"
       id="path680" /><linearGradient
       id="XMLID_7_"
       gradientUnits="userSpaceOnUse"
       x1="33.2910156"
       y1="15.0546875"
       x2="22.45788"
       y2="21.8882732"><stop
         offset="0"
         style="stop-color:#C5E8F1"
         id="stop682" /><stop
         offset="0.1587241"
         style="stop-color:#ACD8E3"
         id="stop683" /><stop
         offset="0.4974"
         style="stop-color:#6BB0BE"
         id="stop684" /><stop
         offset="0.986109"
         style="stop-color:#037184"
         id="stop685" /><stop
         offset="1"
         style="stop-color:#006F82"
         id="stop686" /><a:midPointStop
         offset="0"
         style="stop-color:#C5E8F1"
         id="midPointStop687" /><a:midPointStop
         offset="0.536723"
         style="stop-color:#C5E8F1"
         id="midPointStop688" /><a:midPointStop
         offset="1"
         style="stop-color:#006F82"
         id="midPointStop689" /></linearGradient><path
       fill="url(#XMLID_7_)"
       d="M21.9990234,8.7792969c-0.09375-0.8232422,3.4785156,1.4189453,5.0644531,3.050293    c4.296875,4.4199219,5.4746094,14.9345703,5.5117188,17.0722656c-3.3369141,2.4482422-12.6328125-7.6044922-12.9453125-14.1865234    C19.5654297,16.5444336,22.4511719,12.746582,21.9990234,8.7792969z"
       id="path690" /><radialGradient
       id="XMLID_8_"
       cx="16.0820313"
       cy="11.4775391"
       r="1.4078016"
       fx="16.0820313"
       fy="11.4775391"
       gradientTransform="matrix(0.9069 0.4213 -0.4213 0.9069 8.9686298 -4.815773)"
       gradientUnits="userSpaceOnUse"><stop
         offset="0"
         style="stop-color:#83CEE2"
         id="stop692" /><stop
         offset="0.1503574"
         style="stop-color:#7ECADE"
         id="stop693" /><stop
         offset="0.3327784"
         style="stop-color:#6FC0D3"
         id="stop694" /><stop
         offset="0.5317951"
         style="stop-color:#56AEC1"
         id="stop695" /><stop
         offset="0.7426346"
         style="stop-color:#3495A8"
         id="stop696" /><stop
         offset="0.9607173"
         style="stop-color:#097588"
         id="stop697" /><stop
         offset="1"
         style="stop-color:#006F82"
         id="stop698" /><a:midPointStop
         offset="0"
         style="stop-color:#83CEE2"
         id="midPointStop699" /><a:midPointStop
         offset="0.666667"
         style="stop-color:#83CEE2"
         id="midPointStop700" /><a:midPointStop
         offset="1"
         style="stop-color:#006F82"
         id="midPointStop701" /></radialGradient><path
       fill="url(#XMLID_8_)"
       d="M20.0908203,13.0874023c-0.2636719,0.637207-1.0957031,0.8325195-1.8544922,0.4360352    c-0.7578125-0.3999023-1.1582031-1.2382813-0.8916016-1.8774414c0.265625-0.6381836,1.0957031-0.8325195,1.8535156-0.4345703    C19.9570313,11.6083984,20.3564453,12.4482422,20.0908203,13.0874023z"
       id="path702" /><path
       fill="#005067"
       d="M18.5019531,11.6870117c-0.1279297-0.1303711-0.2431641,0.0390625-0.3525391,0.2128906    c-0.6201172,0.9814453,0.0263672,1.5258789,0.7265625,1.6142578c0.3779297,0.0478516,0.4169922-0.1098633,0.3173828-0.3022461    C18.8388672,12.8808594,18.5927734,12.5473633,18.5019531,11.6870117z"
       id="path703" /><linearGradient
       id="XMLID_9_"
       gradientUnits="userSpaceOnUse"
       x1="27.0820313"
       y1="16.4360352"
       x2="25.0269184"
       y2="21.9166107"
       gradientTransform="matrix(0.9069 0.4213 -0.4213 0.9069 8.9686298 -4.815773)"><stop
         offset="0"
         style="stop-color:#C5E8F1"
         id="stop705" /><stop
         offset="0.1062913"
         style="stop-color:#BEE4ED"
         id="stop706" /><stop
         offset="0.2566567"
         style="stop-color:#ACD9E3"
         id="stop707" /><stop
         offset="0.4332393"
         style="stop-color:#8EC6D2"
         id="stop708" /><stop
         offset="0.6297923"
         style="stop-color:#63ACBA"
         id="stop709" /><stop
         offset="0.8401533"
         style="stop-color:#2E8B9C"
         id="stop710" /><stop
         offset="1"
         style="stop-color:#006F82"
         id="stop711" /><a:midPointStop
         offset="0"
         style="stop-color:#C5E8F1"
         id="midPointStop712" /><a:midPointStop
         offset="0.632768"
         style="stop-color:#C5E8F1"
         id="midPointStop713" /><a:midPointStop
         offset="1"
         style="stop-color:#006F82"
         id="midPointStop714" /></linearGradient><path
       fill="url(#XMLID_9_)"
       d="M21.2138672,14.2485352c-1.3398438,1.2978516-2.2050781,5.4101563-1.6220703,6.5292969    c0.5830078,1.1171875,2.8896484,1.875,3.5810547,2.9111328c0.6923828,1.0380859,1.8632813,3.5546875,2.7705078,4.1494141    c1.0537109,0.6943359,1.8779297-0.3095703,3.0654297,0.7734375c1.1865234,1.0859375,2.3388672,0.6552734,3.1386719-0.0087891    C30.7519531,26.2944336,21.8759766,21.8735352,21.2138672,14.2485352z"
       id="path715" /></g></svg>
