<?xml version="1.0" encoding="UTF-8" standalone="no"?>
<!-- Created with Sodipodi ("http://www.sodipodi.com/") -->

<svg
   width="48pt"
   height="48pt"
   viewBox="0.5 0.1230469 41 42"
   overflow="visible"
   enable-background="new 0.5 0.1230469 41 42"
   xml:space="preserve"
   id="svg630"
   version="1.1"
   xmlns="http://www.w3.org/2000/svg"
   xmlns:svg="http://www.w3.org/2000/svg"
   xmlns:a="http://ns.adobe.com/AdobeSVGViewerExtensions/3.0/"><defs
     id="defs733" /><g
     id="Layer_1_2_"
     transform="matrix(0.951101,0,0,0.951101,1.011435,1.039873)"><path
       id="path557_2_"
       fill="#0A57A4"
       d="M20.2514648,0.1308594L0,7.6220703v27.2197266l0.6796875,0.2460938l20.277832,7.4433594    l20.4106445-7.1767578V7.3129883L20.6044922,0L20.2514648,0.1308594z" /><path
       fill="#FFFFFF"
       d="M40.1904297,8.3310547l-0.2744141-0.1015625l-0.0751953-0.027832l0.1435547-0.0004883    l-0.1728516-0.0107422L20.625,1.0927734V0.9824219c0,0-0.0058594,0.0429688-0.0146484,0.1054688l-0.0058594-0.0024414    L1.2636719,8.2402344C1.1806641,8.2451172,1.125,8.2480469,1.125,8.2480469l0.1230469-0.0019531L1.0185547,8.3310547v25.8779297    h0.0146484l19.2041016,7.1132813v-0.0859375l0.3671875,0.1357422l0.0683594-0.0253906v0.2041016l-0.0683594,0.0253906    l0.5195313-0.1923828c0,0.0195313,0.0009766,0.0507813,0.0009766,0.0634766l19.0517578-7.0214844h0.1728516v-0.0898438h0.0009766    V8.3310547H40.1904297z"
       id="path633" /><g
       opacity="0.8"
       id="g634"><linearGradient
         id="XMLID_1_"
         gradientUnits="userSpaceOnUse"
         x1="39.3046875"
         y1="48.2089844"
         x2="12.5538712"
         y2="28.2083912"><stop
           offset="0"
           style="stop-color:#FFFBE8"
           id="stop636" /><stop
           offset="0.137221"
           style="stop-color:#FFF0CF"
           id="stop637" /><stop
           offset="0.4300148"
           style="stop-color:#FED28D"
           id="stop638" /><stop
           offset="0.8518486"
           style="stop-color:#FCA326"
           id="stop639" /><stop
           offset="1"
           style="stop-color:#FC9200"
           id="stop640" /><a:midPointStop
           offset="0"
           style="stop-color:#FFFBE8"
           id="midPointStop641" /><a:midPointStop
           offset="0.536723"
           style="stop-color:#FFFBE8"
           id="midPointStop642" /><a:midPointStop
           offset="1"
           style="stop-color:#FC9200"
           id="midPointStop643" /></linearGradient><path
         fill="url(#XMLID_1_)"
         d="M24.6884766,37.7089844C12.4091797,30.4082031,9.4223633,28.5830078,4.9423828,20.2861328     c-0.690918,1.1650391-0.9838867-6.5878906-2.1572266-5.4755859C0.625,29.7480469,5.4404297,30.5742188,24.6884766,37.7089844z"
         id="path644" /><linearGradient
         id="XMLID_2_"
         gradientUnits="userSpaceOnUse"
         x1="31.2011719"
         y1="43.8486328"
         x2="7.3253627"
         y2="22.7229462"><stop
           offset="0"
           style="stop-color:#FFFBE8"
           id="stop646" /><stop
           offset="0.137221"
           style="stop-color:#FFF0CF"
           id="stop647" /><stop
           offset="0.4300148"
           style="stop-color:#FED28D"
           id="stop648" /><stop
           offset="0.8518486"
           style="stop-color:#FCA326"
           id="stop649" /><stop
           offset="1"
           style="stop-color:#FC9200"
           id="stop650" /><a:midPointStop
           offset="0"
           style="stop-color:#FFFBE8"
           id="midPointStop651" /><a:midPointStop
           offset="0.536723"
           style="stop-color:#FFFBE8"
           id="midPointStop652" /><a:midPointStop
           offset="1"
           style="stop-color:#FC9200"
           id="midPointStop653" /></linearGradient><path
         fill="url(#XMLID_2_)"
         d="M27.6757813,38.3730469c-10.3666992-10.6650391-16.59375-10.453125-17.7568359-17.7617188     c-0.6894531,1.1669922-4.8027344,0.0566406-5.972168,1.1679688     C5.3066406,29.1826172,15.5893555,30.7539063,27.6757813,38.3730469z"
         id="path654" /><linearGradient
         id="XMLID_3_"
         gradientUnits="userSpaceOnUse"
         x1="21.8535156"
         y1="41.8154297"
         x2="1.3548669"
         y2="19.566927"><stop
           offset="0"
           style="stop-color:#FFFBE8"
           id="stop656" /><stop
           offset="0.137221"
           style="stop-color:#FFF0CF"
           id="stop657" /><stop
           offset="0.4300148"
           style="stop-color:#FED28D"
           id="stop658" /><stop
           offset="0.8518486"
           style="stop-color:#FCA326"
           id="stop659" /><stop
           offset="1"
           style="stop-color:#FC9200"
           id="stop660" /><a:midPointStop
           offset="0"
           style="stop-color:#FFFBE8"
           id="midPointStop661" /><a:midPointStop
           offset="0.536723"
           style="stop-color:#FFFBE8"
           id="midPointStop662" /><a:midPointStop
           offset="1"
           style="stop-color:#FC9200"
           id="midPointStop663" /></linearGradient><path
         fill="url(#XMLID_3_)"
         d="M19.8764648,37.5429688C2.7851563,29.7441406,6.128418,23.5224609,3.2832031,17.465332     c-0.9135742,1.0532227,1.7021484-5.9125977,0.331543-4.9780273C0.125,34.1230469,1.1259766,32.7314453,19.8764648,37.5429688z"
         id="path664" /><linearGradient
         id="XMLID_4_"
         gradientUnits="userSpaceOnUse"
         x1="14.8208008"
         y1="3.0639648"
         x2="8.0709734"
         y2="23.1884975"><stop
           offset="0"
           style="stop-color:#FFFBE8"
           id="stop666" /><stop
           offset="0.137221"
           style="stop-color:#FFF0CF"
           id="stop667" /><stop
           offset="0.4300148"
           style="stop-color:#FED28D"
           id="stop668" /><stop
           offset="0.8518486"
           style="stop-color:#FCA326"
           id="stop669" /><stop
           offset="1"
           style="stop-color:#FC9200"
           id="stop670" /><a:midPointStop
           offset="0"
           style="stop-color:#FFFBE8"
           id="midPointStop671" /><a:midPointStop
           offset="0.536723"
           style="stop-color:#FFFBE8"
           id="midPointStop672" /><a:midPointStop
           offset="1"
           style="stop-color:#FC9200"
           id="midPointStop673" /></linearGradient><path
         fill="url(#XMLID_4_)"
         d="M17.1645508,12.4174805C17.3930664,10.347168,16.6401367,10.4521484,15,9.1230469     c-0.9541016-0.7753906-10.125-1.875-11.6884766,3.6347656c-1.2792969,4.5083008-0.1147461,9.484375,3.7651367,11.5175781     c3.8774414,2.03125,7.309082,4.5273438,10.2822266-4.1503906C18.2578125,17.4970703,18.2602539,14.7387695,17.1645508,12.4174805     z"
         id="path674" /><path
         fill="#AD4200"
         d="M14.25,8.9980469c5.625-0.375,6.9995117-0.3339844,12.2070313,2.9125977     C37.625,18.8730469,38,22.4980469,37.875,34.6230469c-7.7226563,3.3613281-26.8637695-5.7089844-27.2910156-14.5019531     C10.3574219,22.5683594,14.1171875,14.2910156,14.25,8.9980469z"
         id="path675" /><linearGradient
         id="XMLID_5_"
         gradientUnits="userSpaceOnUse"
         x1="11.0820313"
         y1="22.0849609"
         x2="37.3964844"
         y2="22.0849609"><stop
           offset="0"
           style="stop-color:#FFFBE8"
           id="stop677" /><stop
           offset="0.137221"
           style="stop-color:#FFF0CF"
           id="stop678" /><stop
           offset="0.4300148"
           style="stop-color:#FED28D"
           id="stop679" /><stop
           offset="0.8518486"
           style="stop-color:#FCA326"
           id="stop680" /><stop
           offset="1"
           style="stop-color:#FC9200"
           id="stop681" /><a:midPointStop
           offset="0"
           style="stop-color:#FFFBE8"
           id="midPointStop682" /><a:midPointStop
           offset="0.536723"
           style="stop-color:#FFFBE8"
           id="midPointStop683" /><a:midPointStop
           offset="1"
           style="stop-color:#FC9200"
           id="midPointStop684" /></linearGradient><path
         fill="url(#XMLID_5_)"
         d="M14.625,9.4980469c5.125,0.125,7.5458984,0.6948242,11.1132813,2.9892578     C36.25,19.2480469,36,20.7480469,37.3964844,34.3886719c-7.0566406,3.1396484-25.6533203-5.8242188-26.3144531-14.2675781     C10.9458008,22.4648438,15.581543,14.5869141,14.625,9.4980469z"
         id="path685" /><radialGradient
         id="XMLID_6_"
         cx="7.2333984"
         cy="23.2382813"
         r="4.9533491"
         fx="7.2333984"
         fy="23.2382813"
         gradientTransform="matrix(0.9069 0.4213 -0.4213 0.9069 11.551178 -6.6753845)"
         gradientUnits="userSpaceOnUse"><stop
           offset="0"
           style="stop-color:#FFFBE8"
           id="stop687" /><stop
           offset="0.137221"
           style="stop-color:#FFF0CF"
           id="stop688" /><stop
           offset="0.4300148"
           style="stop-color:#FED28D"
           id="stop689" /><stop
           offset="0.8518486"
           style="stop-color:#FCA326"
           id="stop690" /><stop
           offset="1"
           style="stop-color:#FC9200"
           id="stop691" /><a:midPointStop
           offset="0"
           style="stop-color:#FFFBE8"
           id="midPointStop692" /><a:midPointStop
           offset="0.536723"
           style="stop-color:#FFFBE8"
           id="midPointStop693" /><a:midPointStop
           offset="1"
           style="stop-color:#FC9200"
           id="midPointStop694" /></radialGradient><path
         fill="url(#XMLID_6_)"
         d="M13.1533203,19.9785156c-0.9272461,2.2421875-3.8549805,2.9277344-6.5249023,1.5341797     c-2.6660156-1.4072266-4.074707-4.3569336-3.137207-6.6054688c0.9345703-2.2460938,3.8554688-2.9296875,6.5219727-1.5292969     C12.6821289,14.7749023,14.0878906,17.7294922,13.1533203,19.9785156z"
         id="path695" /><linearGradient
         id="XMLID_7_"
         gradientUnits="userSpaceOnUse"
         x1="25.2832031"
         y1="26.1933594"
         x2="22.2830315"
         y2="31.1936378"><stop
           offset="0"
           style="stop-color:#FFFBE8"
           id="stop697" /><stop
           offset="0.137221"
           style="stop-color:#FFF0CF"
           id="stop698" /><stop
           offset="0.4300148"
           style="stop-color:#FED28D"
           id="stop699" /><stop
           offset="0.8518486"
           style="stop-color:#FCA326"
           id="stop700" /><stop
           offset="1"
           style="stop-color:#FC9200"
           id="stop701" /><a:midPointStop
           offset="0"
           style="stop-color:#FFFBE8"
           id="midPointStop702" /><a:midPointStop
           offset="0.536723"
           style="stop-color:#FFFBE8"
           id="midPointStop703" /><a:midPointStop
           offset="1"
           style="stop-color:#FC9200"
           id="midPointStop704" /></linearGradient><path
         fill="url(#XMLID_7_)"
         d="M15.6542969,16.7587891c-2.6264648,1.7314453-4.4438477,7.0107422-3.362793,8.3974609     c1.0805664,1.3847656,5.4907227,2.2070313,6.7822266,3.4824219c1.2939453,1.2773438,3.4536133,4.4042969,5.1782227,5.1054688     c2,0.8173828,3.6240234-0.5097656,5.8691406,0.7949219c2.2421875,1.3085938,4.4765625,0.6894531,6.0390625-0.2021484     C33.5605469,31.4873047,16.6459961,26.4121094,15.6542969,16.7587891z"
         id="path705" /><path
         fill="#AD4200"
         d="M11.0727539,19.5297852c-0.6591797,1.3608398-2.5649414,1.7993164-4.2553711,0.9799805     C5.1279297,19.6904297,4.2915039,17.9228516,4.9516602,16.5625c0.6591797-1.3613281,2.5644531-1.7993164,4.2548828-0.9799805     C10.8964844,16.4018555,11.7324219,18.1694336,11.0727539,19.5297852z"
         id="path706" /></g><g
       opacity="0.6"
       id="g707"><path
         fill="#FFFFE6"
         d="M40.1904297,8.3310547L20.6044922,1.0854492L1.0185547,8.3310547v25.8017578h0.0151367     l19.5708008,7.2392578l0.0683594-0.0253906v0.2041016l-0.0683594,0.0253906l19.5712891-7.2402344h0.1748047V8.3310547H40.1904297     z M20.6044922,15.5766602l0.0683594-0.0253906L20.6044922,15.5766602z"
         id="path708" /><linearGradient
         id="path569_3_"
         gradientUnits="userSpaceOnUse"
         x1="15.5205078"
         y1="28.1757813"
         x2="22.0203381"
         y2="2.6764851"><stop
           offset="0"
           style="stop-color:#2B85BB"
           id="stop710" /><stop
           offset="1"
           style="stop-color:#6AB9D7"
           id="stop711" /><a:midPointStop
           offset="0"
           style="stop-color:#2B85BB"
           id="midPointStop712" /><a:midPointStop
           offset="0.5"
           style="stop-color:#2B85BB"
           id="midPointStop713" /><a:midPointStop
           offset="1"
           style="stop-color:#6AB9D7"
           id="midPointStop714" /></linearGradient><path
         id="path569_2_"
         fill="url(#path569_3_)"
         d="M20.6044922,1.0854492L1.293457,8.2294922     C4.4658203,9.402832,7.6386719,10.5761719,10.8115234,11.75c2.1694336,0.8027344,4.3398438,1.6054688,6.5092773,2.4082031     c0.8842773,0.3271484,2.3237305,1.2148438,3.2836914,1.2148438c0.8310547,0,2.0771484-0.7685547,2.8427734-1.0517578     c2.3164063-0.8569336,4.6337891-1.7143555,6.9501953-2.5712891c3.1728516-1.1738281,6.3447266-2.347168,9.5185547-3.5205078     L20.6044922,1.0854492z" /><linearGradient
         id="path576_3_"
         gradientUnits="userSpaceOnUse"
         x1="13.7954102"
         y1="13.0693359"
         x2="-7.454721"
         y2="94.0700302"><stop
           offset="0"
           style="stop-color:#2B85BB"
           id="stop717" /><stop
           offset="1"
           style="stop-color:#6AB9D7"
           id="stop718" /><a:midPointStop
           offset="0"
           style="stop-color:#2B85BB"
           id="midPointStop719" /><a:midPointStop
           offset="0.5"
           style="stop-color:#2B85BB"
           id="midPointStop720" /><a:midPointStop
           offset="1"
           style="stop-color:#6AB9D7"
           id="midPointStop721" /></linearGradient><path
         id="path576_2_"
         fill="url(#path576_3_)"
         d="M1.0185547,8.9609375v25.2480469h0.0146484l19.2041016,7.1132813     c0.0039063-8.3740234,0.2426758-17.0742188-0.0683594-25.2680664     C13.7851563,13.6899414,7.4018555,11.3251953,1.0185547,8.9609375z" /><linearGradient
         id="path583_3_"
         gradientUnits="userSpaceOnUse"
         x1="28.1835938"
         y1="37.1650391"
         x2="38.9332771"
         y2="-11.3336754"><stop
           offset="0.0056"
           style="stop-color:#6AB9D7"
           id="stop724" /><stop
           offset="1"
           style="stop-color:#0A57A4"
           id="stop725" /><a:midPointStop
           offset="0.0056"
           style="stop-color:#6AB9D7"
           id="midPointStop726" /><a:midPointStop
           offset="0.5"
           style="stop-color:#6AB9D7"
           id="midPointStop727" /><a:midPointStop
           offset="1"
           style="stop-color:#0A57A4"
           id="midPointStop728" /></linearGradient><path
         id="path583_2_"
         fill="url(#path583_3_)"
         d="M21.1254883,41.4472656l19.0512695-7.0214844h0.1728516V9.234375     c-2.2070313,0.7680664-18.7226563,6.5302734-19.0957031,7.0439453     C20.8618164,16.815918,21.1132813,40.3730469,21.1254883,41.4472656z" /></g><path
       opacity="0.2"
       fill="#FFFFFF"
       d="M37.5,27.1230469c0.6660156,4.9160156,0.5,8.6669922-1.1669922,7.8330078    C34.0175781,33.7978516,32.4960938,32.6796875,30,28.9980469c-6.6669922-9.8330078-0.6269531-12.5566406,1.75-12.125    C33.5830078,17.2060547,36.8886719,22.6074219,37.5,27.1230469z"
       id="path730" /><path
       id="path590_2_"
       fill="#0A57A4"
       d="M20.71875,8.2480469l19.265625-0.046875L20.625,7.0292969v-6.046875    c0,0-0.7807617,5.7285156-0.984375,6C19.4375,7.2539063,1.125,8.2480469,1.125,8.2480469l18.46875-0.28125l0.9375,7.453125    L20.71875,8.2480469z" /></g></svg>
