<?xml version="1.0" encoding="UTF-8" standalone="no"?>
<!DOCTYPE svg PUBLIC "-//W3C//DTD SVG 1.0//EN"
"http://www.w3.org/TR/2001/REC-SVG-20010904/DTD/svg10.dtd">
<!-- Created with Sodipodi ("http://www.sodipodi.com/") -->
<svg
   xmlns="http://www.w3.org/2000/svg"
   xmlns:xlink="http://www.w3.org/1999/xlink"
   version="1.0"
   x="0"
   y="0"
   width="45"
   height="40"
   viewBox="0 0 142 109"
   id="svg602"
   xml:space="preserve"><defs
   id="defs695"><linearGradient
   x1="71.3583984"
   y1="69.3672028"
   x2="65.7426987"
   y2="69.3672028"
   id="XMLID_3_"
   gradientUnits="userSpaceOnUse"
   gradientTransform="matrix(0.9395,-0.3426,0.3426,0.9395,-15.7565,29.0038)"><stop
   style="stop-color:#ffffff;stop-opacity:1;"
   offset="5.5999998e-3"
   id="stop630" /><stop
   style="stop-color:#bebebe;stop-opacity:1;"
   offset="1"
   id="stop631" /><a:midPointStop
   offset="0.0056"
   style="stop-color:#FFFFFF"
   id="midPointStop632" /><a:midPointStop
   offset="0.5"
   style="stop-color:#FFFFFF"
   id="midPointStop633" /><a:midPointStop
   offset="1"
   style="stop-color:#BEBEBE"
   id="midPointStop634" /></linearGradient><linearGradient
   x1="79.2881012"
   y1="68.1416016"
   x2="73.6724014"
   y2="68.1416016"
   id="XMLID_4_"
   gradientUnits="userSpaceOnUse"
   gradientTransform="matrix(0.9221,-0.3871,0.3871,0.9221,-18.443,34.3541)"><stop
   style="stop-color:#ffffff;stop-opacity:1;"
   offset="5.5999998e-3"
   id="stop637" /><stop
   style="stop-color:#bebebe;stop-opacity:1;"
   offset="1"
   id="stop638" /><a:midPointStop
   offset="0.0056"
   style="stop-color:#FFFFFF"
   id="midPointStop639" /><a:midPointStop
   offset="0.5"
   style="stop-color:#FFFFFF"
   id="midPointStop640" /><a:midPointStop
   offset="1"
   style="stop-color:#BEBEBE"
   id="midPointStop641" /></linearGradient><linearGradient
   x1="95.4063034"
   y1="60.3041992"
   x2="89.7900009"
   y2="60.3041992"
   id="XMLID_5_"
   gradientUnits="userSpaceOnUse"
   gradientTransform="matrix(0.645,-0.5682,0.6611,0.7503,-15.2297,71.2029)"><stop
   style="stop-color:#ffffff;stop-opacity:1;"
   offset="5.5999998e-3"
   id="stop644" /><stop
   style="stop-color:#bebebe;stop-opacity:1;"
   offset="1"
   id="stop645" /><a:midPointStop
   offset="0.0056"
   style="stop-color:#FFFFFF"
   id="midPointStop646" /><a:midPointStop
   offset="0.5"
   style="stop-color:#FFFFFF"
   id="midPointStop647" /><a:midPointStop
   offset="1"
   style="stop-color:#BEBEBE"
   id="midPointStop648" /></linearGradient><linearGradient
   x1="56.9961014"
   y1="62.7826996"
   x2="51.3813019"
   y2="62.7826996"
   id="XMLID_6_"
   gradientUnits="userSpaceOnUse"
   gradientTransform="matrix(0.9903,-0.1394,0.1394,0.9903,3.5443,17.227)"><stop
   style="stop-color:#ffffff;stop-opacity:1;"
   offset="5.5999998e-3"
   id="stop651" /><stop
   style="stop-color:#bebebe;stop-opacity:1;"
   offset="1"
   id="stop652" /><a:midPointStop
   offset="0.0056"
   style="stop-color:#FFFFFF"
   id="midPointStop653" /><a:midPointStop
   offset="0.5"
   style="stop-color:#FFFFFF"
   id="midPointStop654" /><a:midPointStop
   offset="1"
   style="stop-color:#BEBEBE"
   id="midPointStop655" /></linearGradient><linearGradient
   x1="50.2573013"
   y1="50.8690987"
   x2="44.6411018"
   y2="50.8690987"
   id="XMLID_7_"
   gradientUnits="userSpaceOnUse"
   gradientTransform="matrix(0.7945,4.84e-2,-6.08e-2,0.9981,24.4945,19.0815)"><stop
   style="stop-color:#ffffff;stop-opacity:1;"
   offset="5.5999998e-3"
   id="stop658" /><stop
   style="stop-color:#bebebe;stop-opacity:1;"
   offset="1"
   id="stop659" /><a:midPointStop
   offset="0.0056"
   style="stop-color:#FFFFFF"
   id="midPointStop660" /><a:midPointStop
   offset="0.5"
   style="stop-color:#FFFFFF"
   id="midPointStop661" /><a:midPointStop
   offset="1"
   style="stop-color:#BEBEBE"
   id="midPointStop662" /></linearGradient><linearGradient
   x1="110.204102"
   y1="46.0586014"
   x2="104.586899"
   y2="46.0586014"
   id="XMLID_8_"
   gradientUnits="userSpaceOnUse"
   gradientTransform="matrix(0.4222,-0.648,0.8378,0.546,5.2009,103.3505)"><stop
   style="stop-color:#ffffff;stop-opacity:1;"
   offset="5.5999998e-3"
   id="stop665" /><stop
   style="stop-color:#bebebe;stop-opacity:1;"
   offset="1"
   id="stop666" /><a:midPointStop
   offset="0.0056"
   style="stop-color:#FFFFFF"
   id="midPointStop667" /><a:midPointStop
   offset="0.5"
   style="stop-color:#FFFFFF"
   id="midPointStop668" /><a:midPointStop
   offset="1"
   style="stop-color:#BEBEBE"
   id="midPointStop669" /></linearGradient><linearGradient
   x1="54.2871017"
   y1="34.6567001"
   x2="48.6713982"
   y2="34.6567001"
   id="XMLID_9_"
   gradientUnits="userSpaceOnUse"
   gradientTransform="matrix(0.6411,0.151,-0.2292,0.9734,28.0889,30.0632)"><stop
   style="stop-color:#ffffff;stop-opacity:1;"
   offset="5.5999998e-3"
   id="stop672" /><stop
   style="stop-color:#bebebe;stop-opacity:1;"
   offset="1"
   id="stop673" /><a:midPointStop
   offset="0.0056"
   style="stop-color:#FFFFFF"
   id="midPointStop674" /><a:midPointStop
   offset="0.5"
   style="stop-color:#FFFFFF"
   id="midPointStop675" /><a:midPointStop
   offset="1"
   style="stop-color:#BEBEBE"
   id="midPointStop676" /></linearGradient></defs><g
   style="font-size:12;stroke:#000000;"
   id="g606"><linearGradient
   x1="108.254898"
   y1="43.9101982"
   x2="135"
   y2="43.9101982"
   id="XMLID_1_"
   gradientUnits="userSpaceOnUse"
   gradientTransform="matrix(0.9395,-0.3426,0.3426,0.9395,-15.7565,29.0038)"><stop
   style="stop-color:#12663f;stop-opacity:1;"
   offset="0"
   id="stop608" /><stop
   style="stop-color:#14934f;stop-opacity:1;"
   offset="1"
   id="stop609" /><a:midPointStop
   offset="0"
   style="stop-color:#12663F"
   id="midPointStop610" /><a:midPointStop
   offset="0.5"
   style="stop-color:#12663F"
   id="midPointStop611" /><a:midPointStop
   offset="1"
   style="stop-color:#14934F"
   id="midPointStop612" /></linearGradient><path
   d="M 107.829 40.235 C 107.829 40.235 115.192 39.941 118.622 38.69 C 122.052 37.439 122.938 37.415 122.938 37.415 C 122.938 37.415 116.961 33.318 113.6 30.659 C 110.24 27.999 110.478 27.016 110.478 27.016 C 110.478 27.016 107.217 27.906 105.249 27.429 C 103.281 26.951 100.476 28.273 100.476 28.273 C 100.476 28.273 96.446 27.053 100.139 25.706 C 103.831 24.359 103.375 23.928 103.757 21.697 C 104.138 19.466 103.536 16.995 100.728 15.031 C 97.92 13.066 99.022 11.17 101.952 14.286 C 104.881 17.402 107.882 19.893 107.015 17.519 C 106.15 15.145 106.047 8.309 107.584 9.243 C 109.12 10.177 107.542 17.327 109.317 17.278 C 111.092 17.228 110.627 6.938 112.523 8.04 C 114.419 9.142 110.997 16.964 113.035 16.819 C 115.074 16.673 114.466 7.631 116.412 10.507 C 118.357 13.384 114.86 18.545 114.86 18.545 C 114.86 18.545 116.157 20.462 114.481 24.062 C 112.805 27.662 129.749 36.426 130.829 36.928 C 131.909 37.43 120.545 43.967 115.533 45.794 C 110.521 47.621 109.755 48.798 109.566 51.556 C 109.377 54.315 107.829 40.235 107.829 40.235 z "
   style="fill:url(#XMLID_1_);stroke:none;"
   id="path613" /><path
   d="M 107.829 40.235 C 107.829 40.235 115.192 39.941 118.622 38.69 C 122.052 37.439 122.938 37.415 122.938 37.415 C 122.938 37.415 116.961 33.318 113.6 30.659 C 110.24 27.999 110.478 27.016 110.478 27.016 C 110.478 27.016 107.217 27.906 105.249 27.429 C 103.281 26.951 100.476 28.273 100.476 28.273 C 100.476 28.273 96.446 27.053 100.139 25.706 C 103.831 24.359 103.375 23.928 103.757 21.697 C 104.138 19.466 103.536 16.995 100.728 15.031 C 97.92 13.066 99.022 11.17 101.952 14.286 C 104.881 17.402 107.882 19.893 107.015 17.519 C 106.15 15.145 106.047 8.309 107.584 9.243 C 109.12 10.177 107.542 17.327 109.317 17.278 C 111.092 17.228 110.627 6.938 112.523 8.04 C 114.419 9.142 110.997 16.964 113.035 16.819 C 115.074 16.673 114.466 7.631 116.412 10.507 C 118.357 13.384 114.86 18.545 114.86 18.545 C 114.86 18.545 116.157 20.462 114.481 24.062 C 112.805 27.662 129.749 36.426 130.829 36.928 C 131.909 37.43 120.545 43.967 115.533 45.794 C 110.521 47.621 109.755 48.798 109.566 51.556 C 109.377 54.315 107.829 40.235 107.829 40.235 z "
   style="fill:none;stroke-width:0.2808;"
   id="path614" /></g><g
   style="font-size:12;stroke:#000000;"
   id="g617"><linearGradient
   x1="13.4252996"
   y1="45.4536018"
   x2="33.6411018"
   y2="45.4536018"
   id="XMLID_2_"
   gradientUnits="userSpaceOnUse"
   gradientTransform="matrix(0.9395,-0.3426,0.3426,0.9395,-15.7565,29.0038)"><stop
   style="stop-color:#12663f;stop-opacity:1;"
   offset="0"
   id="stop619" /><stop
   style="stop-color:#14934f;stop-opacity:1;"
   offset="1"
   id="stop620" /><a:midPointStop
   offset="0"
   style="stop-color:#12663F"
   id="midPointStop621" /><a:midPointStop
   offset="0.5"
   style="stop-color:#12663F"
   id="midPointStop622" /><a:midPointStop
   offset="1"
   style="stop-color:#14934F"
   id="midPointStop623" /></linearGradient><path
   d="M 32.848 71.466 C 32.848 71.466 25.415 75.671 24.649 76.847 C 23.883 78.023 25.152 75.767 23.082 68.453 C 21.012 61.138 22.405 63.319 24.491 61.662 C 26.577 60.005 30.772 57.578 30.028 56.355 C 29.283 55.132 25.544 57.991 24.008 57.057 C 22.471 56.123 20.783 46.577 18.648 46.459 C 16.513 46.341 22.397 53.46 20.023 54.326 C 17.649 55.192 15.89 46.27 14.236 47.471 C 12.582 48.672 17.482 55.552 16.691 55.841 C 15.899 56.13 10.038 46.612 10.209 49.538 C 10.379 52.464 12.037 54.55 13.309 55.58 C 14.581 56.61 8.604 52.514 7.67 54.05 C 6.736 55.586 13.455 57.619 13.362 60.641 C 13.268 63.663 13.747 61.696 16.195 63.493 C 18.643 65.29 20.834 73.756 20.142 77.595 C 19.45 81.434 20.123 83.28 20.123 83.28 C 20.123 83.28 32.186 79.479 33.598 75.976 C 35.007 72.472 32.848 71.466 32.848 71.466 z "
   style="fill:url(#XMLID_2_);stroke:none;"
   id="path624" /><path
   d="M 32.848 71.466 C 32.848 71.466 25.415 75.671 24.649 76.847 C 23.883 78.023 25.152 75.767 23.082 68.453 C 21.012 61.138 22.405 63.319 24.491 61.662 C 26.577 60.005 30.772 57.578 30.028 56.355 C 29.283 55.132 25.544 57.991 24.008 57.057 C 22.471 56.123 20.783 46.577 18.648 46.459 C 16.513 46.341 22.397 53.46 20.023 54.326 C 17.649 55.192 15.89 46.27 14.236 47.471 C 12.582 48.672 17.482 55.552 16.691 55.841 C 15.899 56.13 10.038 46.612 10.209 49.538 C 10.379 52.464 12.037 54.55 13.309 55.58 C 14.581 56.61 8.604 52.514 7.67 54.05 C 6.736 55.586 13.455 57.619 13.362 60.641 C 13.268 63.663 13.747 61.696 16.195 63.493 C 18.643 65.29 20.834 73.756 20.142 77.595 C 19.45 81.434 20.123 83.28 20.123 83.28 C 20.123 83.28 32.186 79.479 33.598 75.976 C 35.007 72.472 32.848 71.466 32.848 71.466 z "
   style="fill:none;stroke-width:0.2808;"
   id="path625" /></g><g
   style="font-size:12;stroke:#000000;"
   id="g626"><path
   d="M 104.427 45.66 C 99.137 31.152 100.291 59.721 74.968 68.956 C 46.744 79.249 34.614 61.558 37.788 70.262 C 42.406 82.924 61.606 92.06 80.836 85.046 C 100.065 78.033 109.045 58.321 104.427 45.66 z "
   style="fill:#404040;stroke:none;"
   id="path627" /><path
   d="M 104.427 45.66 C 99.137 31.152 100.291 59.721 74.968 68.956 C 46.744 79.249 34.614 61.558 37.788 70.262 C 42.406 82.924 61.606 92.06 80.836 85.046 C 100.065 78.033 109.045 58.321 104.427 45.66 z "
   style="fill:none;stroke-width:0.2808;"
   id="path628" /></g><path
   d="M 75.049 69.724 C 74.766 68.947 73.905 68.546 73.129 68.829 L 70.667 69.727 C 69.89 70.01 69.49 70.871 69.773 71.647 C 70.057 72.424 70.916 72.824 71.693 72.541 L 74.155 71.644 C 74.932 71.36 75.332 70.501 75.049 69.724 z "
   style="font-size:12;fill:url(#XMLID_3_);"
   id="path635" /><path
   d="M 81.042 66.498 C 80.723 65.735 79.844 65.377 79.081 65.697 L 76.665 66.711 C 75.903 67.032 75.544 67.909 75.864 68.673 C 76.184 69.436 77.061 69.793 77.824 69.474 L 80.24 68.459 C 81.003 68.14 81.362 67.261 81.042 66.498 z "
   style="font-size:12;fill:url(#XMLID_4_);"
   id="path642" /><path
   d="M 86.17 62.243 C 85.623 61.622 84.747 61.5 84.214 61.97 L 82.525 63.459 C 81.991 63.929 82.002 64.813 82.547 65.433 C 83.095 66.054 83.97 66.176 84.504 65.706 L 86.194 64.217 C 86.727 63.748 86.716 62.864 86.17 62.243 z "
   style="font-size:12;fill:url(#XMLID_5_);"
   id="path649" /><path
   d="M 68.74 71.452 C 68.624 70.632 67.867 70.062 67.048 70.177 L 64.454 70.543 C 63.635 70.658 63.064 71.415 63.18 72.234 C 63.295 73.053 64.053 73.624 64.871 73.508 L 67.466 73.142 C 68.285 73.028 68.854 72.271 68.74 71.452 z "
   style="font-size:12;fill:url(#XMLID_6_);"
   id="path656" /><path
   d="M 61.33 72.289 C 61.38 71.463 60.889 70.762 60.231 70.723 L 58.149 70.595 C 57.492 70.555 56.919 71.192 56.868 72.018 C 56.818 72.844 57.309 73.545 57.967 73.584 L 60.049 73.712 C 60.706 73.752 61.28 73.115 61.33 72.289 z "
   style="font-size:12;fill:url(#XMLID_7_);"
   id="path663" /><path
   d="M 90.321 57.088 C 89.628 56.636 88.783 56.705 88.433 57.241 L 87.327 58.939 C 86.978 59.475 87.257 60.275 87.95 60.728 C 88.643 61.179 89.487 61.11 89.837 60.575 L 90.943 58.876 C 91.293 58.341 91.015 57.54 90.321 57.088 z "
   style="font-size:12;fill:url(#XMLID_8_);"
   id="path670" /><path
   d="M 54.953 71.994 C 55.142 71.189 54.866 70.435 54.335 70.31 L 52.656 69.914 C 52.125 69.789 51.542 70.341 51.352 71.145 C 51.163 71.95 51.439 72.704 51.969 72.83 L 53.649 73.225 C 54.179 73.351 54.763 72.8 54.953 71.994 z "
   style="font-size:12;fill:url(#XMLID_9_);"
   id="path677" /><g
   style="font-size:12;stroke:#000000;"
   id="g680"><linearGradient
   x1="36.8418007"
   y1="31.4428997"
   x2="103.946899"
   y2="75.0214005"
   id="XMLID_10_"
   gradientUnits="userSpaceOnUse"
   gradientTransform="matrix(0.9395,-0.3426,0.3426,0.9395,-15.7565,29.0038)"><stop
   style="stop-color:#12663f;stop-opacity:1;"
   offset="0"
   id="stop682" /><stop
   style="stop-color:#14934f;stop-opacity:1;"
   offset="1"
   id="stop683" /><a:midPointStop
   offset="0"
   style="stop-color:#12663F"
   id="midPointStop684" /><a:midPointStop
   offset="0.5"
   style="stop-color:#12663F"
   id="midPointStop685" /><a:midPointStop
   offset="1"
   style="stop-color:#14934F"
   id="midPointStop686" /></linearGradient><path
   d="M 81.024 88.923 C 59.317 96.839 36.165 88.022 29.312 69.229 C 22.458 50.437 34.499 28.785 56.205 20.868 C 77.912 12.952 101.064 21.769 107.918 40.562 C 114.771 59.354 102.73 81.006 81.024 88.923 z M 104.427 45.66 C 99.137 31.152 100.291 59.721 74.968 68.956 C 46.744 79.249 34.614 61.558 37.788 70.262 C 42.406 82.924 61.606 92.06 80.836 85.046 C 100.065 78.033 109.045 58.321 104.427 45.66 z "
   style="fill:url(#XMLID_10_);stroke:none;"
   id="path687" /><path
   d="M 81.024 88.923 C 59.317 96.839 36.165 88.022 29.312 69.229 C 22.458 50.437 34.499 28.785 56.205 20.868 C 77.912 12.952 101.064 21.769 107.918 40.562 C 114.771 59.354 102.73 81.006 81.024 88.923 z M 104.427 45.66 C 99.137 31.152 100.291 59.721 74.968 68.956 C 46.744 79.249 34.614 61.558 37.788 70.262 C 42.406 82.924 61.606 92.06 80.836 85.046 C 100.065 78.033 109.045 58.321 104.427 45.66 z "
   style="fill:none;stroke-width:0.2808;"
   id="path688" /></g><g
   transform="translate(0,-3.814697e-6)"
   style="font-size:12;stroke:#000000;"
   id="g691"><path
   d="M 65.63 87.604 C 65.63 87.604 66.27 78.704 69.962 77.357 C 73.655 76.01 74.329 77.857 75.384 77.472 C 76.44 77.087 75.405 75.073 79.89 73.438 C 84.374 71.802 99.183 80.448 102.835 87.186 C 106.487 93.922 88.383 100.824 85.187 94.518 C 81.991 88.212 73.769 86.428 65.63 87.604 z "
   style="fill:#6e0908;stroke:none;"
   id="path692" /><path
   d="M 65.63 87.604 C 65.63 87.604 66.27 78.704 69.962 77.357 C 73.655 76.01 74.329 77.857 75.384 77.472 C 76.44 77.087 75.405 75.073 79.89 73.438 C 84.374 71.802 99.183 80.448 102.835 87.186 C 106.487 93.922 88.383 100.824 85.187 94.518 C 81.991 88.212 73.769 86.428 65.63 87.604 z "
   style="fill:none;stroke-width:0.2808;"
   id="path693" /></g></svg>
